<svg width="30" height="30" viewBox="0 0 30 30" fill="none" xmlns="http://www.w3.org/2000/svg">
<rect width="30" height="30" rx="5" fill="#D9C8FF"/>
<mask id="mask0" mask-type="alpha" maskUnits="userSpaceOnUse" x="0" y="0" width="30" height="30">
<rect width="30" height="30" rx="5" fill="#05BCF5"/>
</mask>
<g mask="url(#mask0)">
<g clip-path="url(#clip0)">
<path d="M7.8739 24.3529C8.15265 21.8608 10.2597 19.9763 12.7673 19.9763H19.8662C22.3738 19.9763 24.4809 21.8608 24.7596 24.3529L25.5031 31H7.13037L7.8739 24.3529Z" fill="#FFD4C7"/>
<mask id="mask1" mask-type="alpha" maskUnits="userSpaceOnUse" x="7" y="19" width="19" height="12">
<path d="M7.8739 24.3529C8.15265 21.8608 10.2597 19.9763 12.7673 19.9763H19.8662C22.3738 19.9763 24.4809 21.8608 24.7596 24.3529L25.5031 31H7.13037L7.8739 24.3529Z" fill="#00D355"/>
</mask>
<g mask="url(#mask1)">
<path d="M8.31482 24.3529C8.59357 21.8608 10.7006 19.9763 13.2082 19.9763H20.3072C22.8147 19.9763 24.9218 21.8608 25.2005 24.3529L25.9441 31H7.57129L8.31482 24.3529Z" fill="#FFB7A0"/>
<path d="M8.75579 24.3529C9.03455 21.8608 11.1416 19.9763 13.6492 19.9763H20.7481C23.2557 19.9763 25.3628 21.8608 25.6415 24.3529L26.385 31H8.01227L8.75579 24.3529Z" fill="url(#paint0_linear)"/>
</g>
<path fill-rule="evenodd" clip-rule="evenodd" d="M11.2459 26.5905C11.3676 26.5905 11.4663 26.6892 11.4663 26.811V31C11.4663 31.1217 11.3676 31.2205 11.2459 31.2205C11.1241 31.2205 11.0254 31.1217 11.0254 31V26.811C11.0254 26.6892 11.1241 26.5905 11.2459 26.5905Z" fill="url(#paint1_linear)"/>
<path fill-rule="evenodd" clip-rule="evenodd" d="M20.9467 26.5905C21.0684 26.5905 21.1671 26.6892 21.1671 26.811V31C21.1671 31.1217 21.0684 31.2205 20.9467 31.2205C20.8249 31.2205 20.7262 31.1217 20.7262 31V26.811C20.7262 26.6892 20.8249 26.5905 20.9467 26.5905Z" fill="url(#paint2_linear)"/>
</g>
<g clip-path="url(#clip1)">
<path d="M15.1465 15.9588H17.0832L17.5931 19.9205C17.7079 20.8119 17.0136 21.6013 16.1148 21.6013C15.2161 21.6013 14.5218 20.8119 14.6365 19.9205L15.1465 15.9588Z" fill="#FBC6D7"/>
<mask id="mask2" mask-type="alpha" maskUnits="userSpaceOnUse" x="14" y="15" width="4" height="7">
<path d="M15.1465 15.9588H17.0832L17.5931 19.9205C17.7079 20.8119 17.0136 21.6013 16.1148 21.6013C15.2161 21.6013 14.5218 20.8119 14.6365 19.9205L15.1465 15.9588Z" fill="#FF7CA6"/>
</mask>
<g mask="url(#mask2)">
<path d="M15.2271 15.9588H17.1638L17.4059 17.2485C16.7455 18.2733 15.8727 18.377 14.5815 18.6995L15.2271 15.9588Z" fill="#FF7CA6"/>
</g>
<path d="M11.6933 11.0702C11.8823 11.6644 11.6568 12.2658 11.1896 12.4137C10.7223 12.5615 10.1904 12.1997 10.0014 11.6056C9.81239 11.0115 10.0379 10.41 10.5052 10.2622C10.9724 10.1143 11.5043 10.4761 11.6933 11.0702Z" fill="#FBC6D7"/>
<path d="M11.501 11.1369C11.6241 11.5244 11.4624 11.9214 11.1397 12.0236C10.817 12.1258 10.4556 11.8945 10.3325 11.507C10.2094 11.1195 10.3711 10.7226 10.6938 10.6204C11.0165 10.5182 11.3779 10.7494 11.501 11.1369Z" fill="#FF7CA6"/>
<path d="M20.6527 11.3927C20.4637 11.9868 20.6893 12.5883 21.1565 12.7361C21.6237 12.884 22.1557 12.5222 22.3447 11.9281C22.5336 11.3339 22.3081 10.7324 21.8409 10.5846C21.3737 10.4368 20.8417 10.7986 20.6527 11.3927Z" fill="#FBC6D7"/>
<path d="M20.845 11.4594C20.7219 11.8469 20.8837 12.2438 21.2063 12.346C21.529 12.4482 21.8904 12.217 22.0135 11.8295C22.1367 11.442 21.9749 11.045 21.6522 10.9428C21.3296 10.8406 20.9682 11.0719 20.845 11.4594Z" fill="#FF7CA6"/>
<path d="M20.9568 11.7673C20.9568 14.8836 18.789 17.4098 16.1149 17.4098C13.4408 17.4098 11.273 14.8836 11.273 11.7673C11.273 8.65105 13.4408 6.12482 16.1149 6.12482C18.789 6.12482 20.9568 8.65105 20.9568 11.7673Z" fill="#FBC6D7"/>
<mask id="mask3" mask-type="alpha" maskUnits="userSpaceOnUse" x="11" y="6" width="10" height="12">
<path d="M20.9569 11.7673C20.9569 14.8836 18.7891 17.4098 16.115 17.4098C13.4409 17.4098 11.2731 14.8836 11.2731 11.7673C11.2731 8.65105 13.4409 6.12482 16.115 6.12482C18.7891 6.12482 20.9569 8.65105 20.9569 11.7673Z" fill="#FBC6D7"/>
</mask>
<g mask="url(#mask3)">
<path d="M20.9479 14.244C20.9479 14.9746 20.3557 15.5669 19.6251 15.5669C18.8945 15.5669 18.3022 14.9746 18.3022 14.244C18.3022 13.5135 18.8945 12.9212 19.6251 12.9212C20.3557 12.9212 20.9479 13.5135 20.9479 14.244Z" fill="#FF5E5E"/>
<path d="M14.1133 14.244C14.1133 14.9746 13.521 15.5669 12.7904 15.5669C12.0598 15.5669 11.4676 14.9746 11.4676 14.244C11.4676 13.5135 12.0598 12.9212 12.7904 12.9212C13.521 12.9212 14.1133 13.5135 14.1133 14.244Z" fill="#FF5E5E"/>
</g>
<path fill-rule="evenodd" clip-rule="evenodd" d="M17.1055 15.4917C17.147 15.5614 17.1242 15.6517 17.0544 15.6932C16.7331 15.8846 16.4592 16.0032 16.1731 16.0077C15.8845 16.0123 15.6087 15.9006 15.2827 15.6905C15.2145 15.6465 15.1949 15.5555 15.2389 15.4873C15.2829 15.4191 15.3738 15.3994 15.442 15.4434C15.7477 15.6405 15.9645 15.717 16.1685 15.7138C16.3749 15.7106 16.5936 15.6255 16.904 15.4407C16.9737 15.3991 17.0639 15.422 17.1055 15.4917Z" fill="#FF7FA8"/>
<path d="M14.2603 11.7453C14.2603 12.1106 14.0958 12.4068 13.8928 12.4068C13.6899 12.4068 13.5254 12.1106 13.5254 11.7453C13.5254 11.3801 13.6899 11.0839 13.8928 11.0839C14.0958 11.0839 14.2603 11.3801 14.2603 11.7453Z" fill="#3B2144"/>
<path d="M18.6697 11.7453C18.6697 12.1106 18.5052 12.4068 18.3023 12.4068C18.0993 12.4068 17.9348 12.1106 17.9348 11.7453C17.9348 11.3801 18.0993 11.0839 18.3023 11.0839C18.5052 11.0839 18.6697 11.3801 18.6697 11.7453Z" fill="#3B2144"/>
<path fill-rule="evenodd" clip-rule="evenodd" d="M15.9138 11.3411C15.9949 11.3411 16.0608 11.4069 16.0608 11.4881V13.5181L16.7337 13.4011C16.8137 13.3871 16.8898 13.4407 16.9037 13.5207C16.9176 13.6007 16.8641 13.6768 16.7841 13.6907L15.939 13.8376C15.8962 13.8451 15.8524 13.8333 15.8192 13.8053C15.786 13.7774 15.7668 13.7362 15.7668 13.6928V11.4881C15.7668 11.4069 15.8326 11.3411 15.9138 11.3411Z" fill="#FF7FA8"/>
</g>
<path fill-rule="evenodd" clip-rule="evenodd" d="M18.3061 10.0203C18.0535 10.0394 17.8168 10.1864 17.6564 10.4127C17.6212 10.4624 17.5523 10.4741 17.5027 10.4389C17.453 10.4036 17.4413 10.3348 17.4765 10.2852C17.6687 10.0142 17.9614 9.8252 18.2896 9.80048C18.6214 9.77548 18.9703 9.91978 19.2681 10.2785C19.307 10.3254 19.3005 10.3949 19.2537 10.4338C19.2068 10.4726 19.1373 10.4662 19.0984 10.4193C18.8382 10.1059 18.5551 10.0016 18.3061 10.0203Z" fill="#FF7FA8"/>
<path fill-rule="evenodd" clip-rule="evenodd" d="M13.5291 10.1674C13.2765 10.1864 13.0398 10.3335 12.8793 10.5598C12.8441 10.6094 12.7753 10.6212 12.7256 10.5859C12.676 10.5507 12.6642 10.4819 12.6995 10.4322C12.8916 10.1613 13.1843 9.9723 13.5125 9.94757C13.8443 9.92258 14.1932 10.0669 14.491 10.4256C14.5299 10.4725 14.5235 10.5419 14.4766 10.5808C14.4298 10.6197 14.3603 10.6133 14.3214 10.5664C14.0612 10.253 13.778 10.1487 13.5291 10.1674Z" fill="#FF7FA8"/>
<path fill-rule="evenodd" clip-rule="evenodd" d="M13.7151 16.675C12.5467 15.894 11.6936 14.5442 11.4331 12.9492L11.4093 12.9446C11.3142 13.9558 11.4509 14.3923 11.5324 14.6526C11.5629 14.75 11.5856 14.8227 11.5856 14.8917C10.6001 13.9061 10.6088 13.1925 10.8863 12.6498C10.855 12.6134 10.8256 12.5736 10.798 12.5299C10.5017 12.4228 10.2367 12.1408 10.1161 11.7608C9.93312 11.1839 10.1522 10.5997 10.6055 10.4559C10.7752 10.402 10.9536 10.4176 11.1201 10.4884L11.1201 10.4881C10.9537 10.4174 10.7753 10.4019 10.6056 10.4557C10.5251 10.4813 10.452 10.5207 10.3872 10.5715C9.79332 7.88195 11.1465 4.45188 15.4398 4.45188C15.6603 4.42684 15.8735 4.40961 16.0796 4.39973C15.5872 3.88444 14.9509 3.47429 14.158 3.19742C10.9488 2.41469 8.39583 3.95525 6.95684 7.89385C6.41737 9.3704 6.73342 11.258 7.06716 13.2512C7.62366 16.5748 8.22934 20.1921 5 22.6875C6.51034 22.6875 8.52231 22.2962 9.38332 20.1045C9.38332 20.7488 8.45074 21.8341 8.18718 22.1408C8.09853 22.2439 8.08557 22.259 8.20922 22.1396C12.2436 21.8835 12.5826 20.3175 12.8526 19.0706C12.9126 18.7934 12.9692 18.532 13.0622 18.3042C13.2314 17.7213 13.4553 17.1844 13.7151 16.675Z" fill="#3D0525"/>
<path fill-rule="evenodd" clip-rule="evenodd" d="M11.4183 12.853C11.4231 12.8852 11.4281 12.9172 11.4333 12.9492C11.4252 12.9477 11.4172 12.9462 11.4093 12.9446C11.3142 13.9557 11.4509 14.3922 11.5323 14.6525C11.5628 14.75 11.5856 14.8227 11.5856 14.8916C10.6 13.906 10.6088 13.1925 10.8862 12.6497C10.8549 12.6133 10.8254 12.5733 10.7978 12.5296C10.842 12.5456 10.8869 12.5577 10.932 12.5657C11.0294 12.3973 11.1505 12.2459 11.2714 12.1082C11.0603 11.8671 11.0811 11.396 11.1071 10.809C11.1117 10.7054 11.1165 10.5983 11.1201 10.4881C10.9537 10.4174 10.7753 10.4019 10.6056 10.4557C10.5251 10.4812 10.452 10.5207 10.3872 10.5715C9.79329 7.88192 11.1465 4.45185 15.4398 4.45185C21.6404 3.74783 22.0623 9.21455 21.1963 10.7629C21.0765 10.7952 20.9604 10.8562 20.8551 10.941C20.8396 11.0518 20.8237 11.1625 20.808 11.2726C20.7773 11.4868 20.747 11.6992 20.7195 11.9079L20.7372 11.9272C21.2856 12.5238 22.085 13.3935 20.5868 14.8916C20.5868 14.8227 20.6096 14.75 20.6401 14.6525C20.7379 14.34 20.9152 13.7735 20.6756 12.2633L20.6709 12.3057C20.436 10.5837 18.5575 7.29622 17.3834 7.29622C16.4441 7.29622 16.2615 9.48788 16.2875 10.3489C15.5361 9.97317 15.2439 8.00068 15.1917 7.29622C14.1272 7.79717 13.7045 10.088 13.6263 10.7403C13.0001 10.3645 13.3653 8.31377 13.6263 7.76586C13.0419 7.61977 12.2777 9.83097 11.7827 11.2632L11.7827 11.2633C11.6998 11.503 11.6245 11.7209 11.5589 11.9022C11.4921 12.2643 11.4469 12.5788 11.4183 12.853Z" fill="#4C062E"/>
</g>
<defs>
<linearGradient id="paint0_linear" x1="17.1987" y1="19.9763" x2="17.1987" y2="26.37" gradientUnits="userSpaceOnUse">
<stop stop-color="#FFAF8D"/>
<stop offset="1" stop-color="#FFB672"/>
</linearGradient>
<linearGradient id="paint1_linear" x1="11.2826" y1="26.811" x2="11.2826" y2="31" gradientUnits="userSpaceOnUse">
<stop stop-color="#ECAA48" stop-opacity="0"/>
<stop offset="1" stop-color="#FF9D43"/>
</linearGradient>
<linearGradient id="paint2_linear" x1="20.9834" y1="26.811" x2="20.9834" y2="31" gradientUnits="userSpaceOnUse">
<stop stop-color="#ECAA48" stop-opacity="0"/>
<stop offset="1" stop-color="#FF9D43"/>
</linearGradient>
<clipPath id="clip0">
<rect width="18.3728" height="11.0237" fill="white" transform="translate(7.13037 19.9763)"/>
</clipPath>
<clipPath id="clip1">
<rect width="13.0277" height="15.4766" fill="white" transform="translate(9.65918 6.12482)"/>
</clipPath>
</defs>
</svg>
